<?xml version="1.0" encoding="utf-8"?>
<svg id="Component_42_4" data-name="Component 42 – 4" xmlns="http://www.w3.org/2000/svg" width="36" height="36" viewBox="0 0 36 36">
  <circle id="Ellipse_2" data-name="Ellipse 2" cx="18" cy="18" r="18" fill="#9b2242"/>
  <path id="Path_126" data-name="Path 126" d="M2720.217,2135.247q0-2.116,0-4.232c0-.063-.019-.074-.077-.074-.543,0-1.085,0-1.627,0-.051,0-.063-.011-.063-.063q0-1.422,0-2.843c0-.054.017-.062.065-.062.546,0,1.092,0,1.638,0,.053,0,.063-.015.063-.064,0-.659,0-1.316,0-1.974a5.335,5.335,0,0,1,.167-1.269,3.345,3.345,0,0,1,.4-.951,2.786,2.786,0,0,1,.472-.559,2.258,2.258,0,0,1,.455-.323,3.927,3.927,0,0,1,1.412-.442,6.475,6.475,0,0,1,.889-.058q1.158,0,2.316,0c.051,0,.063.012.063.063q0,1.421,0,2.843c0,.053-.015.062-.064.062q-.74,0-1.482,0a2.016,2.016,0,0,0-.544.067.672.672,0,0,0-.53.612,3.29,3.29,0,0,0-.025.4c0,.512,0,1.023-.009,1.534,0,.053.016.062.064.062.845,0,1.691,0,2.537,0,.061,0,.067.019.062.072-.044.4-.085.805-.128,1.208q-.079.742-.158,1.483a1.285,1.285,0,0,0-.013.15c0,.046-.019.056-.062.056l-2.235,0c-.054,0-.066.014-.066.066q0,4.233,0,8.465c0,.076,0,.076-.077.076q-1.69,0-3.381,0c-.057,0-.069-.014-.069-.069Q2720.219,2137.363,2720.217,2135.247Z" transform="translate(-2704.452 -2113.335)" fill="#fff"/>
</svg>
